<svg xmlns="http://www.w3.org/2000/svg" width="1400" height="440" viewBox="0 0 1400 440" role="img" aria-label="Commit activity. 2912 contributions in the last 12 months. 47-day current streak. 47-day longest streak. Auto-updated daily via GitHub Actions, last generated Sep 16, 2026." xmlns:c2pa="http://c2pa.org/manifest"><metadata><c2pa:manifest>AAAWgmp1bWIAAAAeanVtZGMycGEAEQAQgAAAqgA4m3EDYzJwYQAAABZcanVtYgAAAEdqdW1kYzJtYQARABCAAACqADibcQN1cm46YzJwYTowYmE3MTc0Yy1iMTFiLTRhNWEtYjliZS1mMTdjOTIwNDlmMzMAAAADl2p1bWIAAAApanVtZGMyYXMAEQAQgAAAqgA4m3EDYzJwYS5hc3NlcnRpb25zAAAAALxqdW1iAAAARGp1bWRjYm9yABEAEIAAAKoAOJtxE2MycGEuaW5ncmVkaWVudC52MwAAAAAYYzJzaFypS3fYErO0hA4f5HnA2u0AAABwY2JvcqNpZGM6Zm9ybWF0bWltYWdlL3N2Zyt4bWxqaW5zdGFuY2VJRHgseG1wOmlpZDpmNGRmZTkxYy1hMjE4LTQwYmUtOGEzNi03YjVhNmRmMWU1ZTBscmVsYXRpb25zaGlwaHBhcmVudE9mAAAB4mp1bWIAAABBanVtZGNib3IAEQAQgAAAqgA4m3ETYzJwYS5hY3Rpb25zLnYyAAAAABhjMnNoTYuS4HBHuM2ZpQp8BFHsPgAAAZljYm9yomdhY3Rpb25zgqJmYWN0aW9ua2MycGEub3BlbmVkanBhcmFtZXRlcnOha2luZ3JlZGllbnRzgaJjdXJseC1zZWxmI2p1bWJmPWMycGEuYXNzZXJ0aW9ucy9jMnBhLmluZ3JlZGllbnQudjNkaGFzaFggVwER3wJkzjpj7CGMHQMxc5MiE+XuY0ORKEeMM3j9ssOkZmFjdGlvbngdY29tLmFudGhyb3BpYy5jbGF1ZGUucHJvdmlkZWRqcGFyYW1ldGVyc6F4H2NvbS5hbnRocm9waWMub3JpZ2luLWNvbmZpZGVuY2VndW5rbm93bmtkZXNjcmlwdGlvbnhmQ2xhdWRlIHByb3ZpZGVkIHRoaXMgZmlsZSBhdCB0aGUgcmVxdWVzdCBvZiBhIHVzZXIgYW5kIG1heSBoYXZlIGNyZWF0ZWQgb3IgbW9kaWZpZWQgdGhlIGZpbGUgY29udGVudHMubXNvZnR3YXJlQWdlbnShZG5hbWVmQ2xhdWRlcmFsbEFjdGlvbnNJbmNsdWRlZPUAAADIanVtYgAAAEBqdW1kY2JvcgARABCAAACqADibcRNjMnBhLmhhc2guZGF0YQAAAAAYYzJzaDUbzMGITcvr+NDLlaBd8V0AAACAY2JvcqVjYWxnZnNoYTI1NmNwYWRMAAAAAAAAAAAAAAAAZGhhc2hYIHVJtIcnDWbHmardhsUmO4MKxRYOTKJ962Nmwbad5p+aZG5hbWVuanVtYmYgbWFuaWZlc3RqZXhjbHVzaW9uc4GiZXN0YXJ0GQFdZmxlbmd0aBkeBAAAAj5qdW1iAAAAJ2p1bWRjMmNsABEAEIAAAKoAOJtxA2MycGEuY2xhaW0udjIAAAACD2Nib3KlY2FsZ2ZzaGEyNTZpc2lnbmF0dXJleE1zZWxmI2p1bWJmPS9jMnBhL3VybjpjMnBhOjBiYTcxNzRjLWIxMWItNGE1YS1iOWJlLWYxN2M5MjA0OWYzMy9jMnBhLnNpZ25hdHVyZWppbnN0YW5jZUlEeCx4bXA6aWlkOjAzZGFmOGNjLTViMWItNDgzOC1iZDQxLTNjYjIzNjhhMGNjNnJjcmVhdGVkX2Fzc2VydGlvbnODomN1cmx4LXNlbGYjanVtYmY9YzJwYS5hc3NlcnRpb25zL2MycGEuaW5ncmVkaWVudC52M2RoYXNoWCBXARHfAmTOOmPsIYwdAzFzkyIT5e5jQ5EoR4wzeP2yw6JjdXJseCpzZWxmI2p1bWJmPWMycGEuYXNzZXJ0aW9ucy9jMnBhLmFjdGlvbnMudjJkaGFzaFggVYjk5N8HKHg4ak3NaXl9g2B03BMELQh2tRlful5OieCiY3VybHgpc2VsZiNqdW1iZj1jMnBhLmFzc2VydGlvbnMvYzJwYS5oYXNoLmRhdGFkaGFzaFggKTxyf6ryfXq9KsV1JWITZAiHSvTmisOTkYpgygHtymV0Y2xhaW1fZ2VuZXJhdG9yX2luZm+jZG5hbWVvQW50aHJvcGljIEZpbGVzZ3ZlcnNpb25lMS4wLjBrc3BlY1ZlcnNpb25lMi40LjAAABA4anVtYgAAAChqdW1kYzJjcwARABCAAACqADibcQNjMnBhLnNpZ25hdHVyZQAAABAIY2JvctKEWQISogEmGCFZAgowggIGMIIBjaADAgECAhRA5aAK7sI50L64g/oGQgU9Z1UTADAKBggqhkjOPQQDAzBJMRcwFQYDVQQKEw5BbnRocm9waWMsIFBCQzEuMCwGA1UEAxMlQW50aHJvcGljIENvbnRlbnQgQ3JlZGVudGlhbHMgUm9vdCBDQTAeFw0yNjA4MDcxODQzNTZaFw0yODA4MDYxOTQzNTZaMEQxFzAVBgNVBAoTDkFudGhyb3BpYywgUEJDMSkwJwYDVQQDEyBBbnRocm9waWMgQ2xhdWRlIENvbnRlbnQgU2lnbmluZzBZMBMGByqGSM49AgEGCCqGSM49AwEHA0IABJh6CmvLUBgFFNU0vUKlOVtE6djd17L5SuwX0LemFisBM3dkd/3cyjxFA3Qo5S46fX0/ihY0VZ7mfb9KF703t5OjWDBWMA4GA1UdDwEB/wQEAwIHgDAVBgNVHSUEDjAMBgorBgEEAYPoXgIBMAwGA1UdEwEB/wQCMAAwHwYDVR0jBBgwFoAUzlHiBIFOZFsj+OPEz5o+nMHXXMIwCgYIKoZIzj0EAwMDZwAwZAIwMXMdFJ4BetLLVY7ORuE9noqbbAZOZn/aArXyTwFAZfKrPzxF2vPoJNf1+UCdg1XGAjBwX1zd9WGqYkqmL5SFqw1QySjr1zJfpJM9+1rdDwSPLMOPOjKuiXjoU/pUUeG9RwmhY3BhZFkNngAAAAAAAAAAAAAAAAAAAAAAAAAAAAAAAAAAAAAAAAAAAAAAAAAAAAAAAAAAAAAAAAAAAAAAAAAAAAAAAAAAAAAAAAAAAAAAAAAAAAAAAAAAAAAAAAAAAAAAAAAAAAAAAAAAAAAAAAAAAAAAAAAAAAAAAAAAAAAAAAAAAAAAAAAAAAAAAAAAAAAAAAAAAAAAAAAAAAAAAAAAAAAAAAAAAAAAAAAAAAAAAAAAAAAAAAAAAAAAAAAAAAAAAAAAAAAAAAAAAAAAAAAAAAAAAAAAAAAAAAAAAAAAAAAAAAAAAAAAAAAAAAAAAAAAAAAAAAAAAAAAAAAAAAAAAAAAAAAAAAAAAAAAAAAAAAAAAAAAAAAAAAAAAAAAAAAAAAAAAAAAAAAAAAAAAAAAAAAAAAAAAAAAAAAAAAAAAAAAAAAAAAAAAAAAAAAAAAAAAAAAAAAAAAAAAAAAAAAAAAAAAAAAAAAAAAAAAAAAAAAAAAAAAAAAAAAAAAAAAAAAAAAAAAAAAAAAAAAAAAAAAAAAAAAAAAAAAAAAAAAAAAAAAAAAAAAAAAAAAAAAAAAAAAAAAAAAAAAAAAAAAAAAAAAAAAAAAAAAAAAAAAAAAAAAAAAAAAAAAAAAAAAAAAAAAAAAAAAAAAAAAAAAAAAAAAAAAAAAAAAAAAAAAAAAAAAAAAAAAAAAAAAAAAAAAAAAAAAAAAAAAAAAAAAAAAAAAAAAAAAAAAAAAAAAAAAAAAAAAAAAAAAAAAAAAAAAAAAAAAAAAAAAAAAAAAAAAAAAAAAAAAAAAAAAAAAAAAAAAAAAAAAAAAAAAAAAAAAAAAAAAAAAAAAAAAAAAAAAAAAAAAAAAAAAAAAAAAAAAAAAAAAAAAAAAAAAAAAAAAAAAAAAAAAAAAAAAAAAAAAAAAAAAAAAAAAAAAAAAAAAAAAAAAAAAAAAAAAAAAAAAAAAAAAAAAAAAAAAAAAAAAAAAAAAAAAAAAAAAAAAAAAAAAAAAAAAAAAAAAAAAAAAAAAAAAAAAAAAAAAAAAAAAAAAAAAAAAAAAAAAAAAAAAAAAAAAAAAAAAAAAAAAAAAAAAAAAAAAAAAAAAAAAAAAAAAAAAAAAAAAAAAAAAAAAAAAAAAAAAAAAAAAAAAAAAAAAAAAAAAAAAAAAAAAAAAAAAAAAAAAAAAAAAAAAAAAAAAAAAAAAAAAAAAAAAAAAAAAAAAAAAAAAAAAAAAAAAAAAAAAAAAAAAAAAAAAAAAAAAAAAAAAAAAAAAAAAAAAAAAAAAAAAAAAAAAAAAAAAAAAAAAAAAAAAAAAAAAAAAAAAAAAAAAAAAAAAAAAAAAAAAAAAAAAAAAAAAAAAAAAAAAAAAAAAAAAAAAAAAAAAAAAAAAAAAAAAAAAAAAAAAAAAAAAAAAAAAAAAAAAAAAAAAAAAAAAAAAAAAAAAAAAAAAAAAAAAAAAAAAAAAAAAAAAAAAAAAAAAAAAAAAAAAAAAAAAAAAAAAAAAAAAAAAAAAAAAAAAAAAAAAAAAAAAAAAAAAAAAAAAAAAAAAAAAAAAAAAAAAAAAAAAAAAAAAAAAAAAAAAAAAAAAAAAAAAAAAAAAAAAAAAAAAAAAAAAAAAAAAAAAAAAAAAAAAAAAAAAAAAAAAAAAAAAAAAAAAAAAAAAAAAAAAAAAAAAAAAAAAAAAAAAAAAAAAAAAAAAAAAAAAAAAAAAAAAAAAAAAAAAAAAAAAAAAAAAAAAAAAAAAAAAAAAAAAAAAAAAAAAAAAAAAAAAAAAAAAAAAAAAAAAAAAAAAAAAAAAAAAAAAAAAAAAAAAAAAAAAAAAAAAAAAAAAAAAAAAAAAAAAAAAAAAAAAAAAAAAAAAAAAAAAAAAAAAAAAAAAAAAAAAAAAAAAAAAAAAAAAAAAAAAAAAAAAAAAAAAAAAAAAAAAAAAAAAAAAAAAAAAAAAAAAAAAAAAAAAAAAAAAAAAAAAAAAAAAAAAAAAAAAAAAAAAAAAAAAAAAAAAAAAAAAAAAAAAAAAAAAAAAAAAAAAAAAAAAAAAAAAAAAAAAAAAAAAAAAAAAAAAAAAAAAAAAAAAAAAAAAAAAAAAAAAAAAAAAAAAAAAAAAAAAAAAAAAAAAAAAAAAAAAAAAAAAAAAAAAAAAAAAAAAAAAAAAAAAAAAAAAAAAAAAAAAAAAAAAAAAAAAAAAAAAAAAAAAAAAAAAAAAAAAAAAAAAAAAAAAAAAAAAAAAAAAAAAAAAAAAAAAAAAAAAAAAAAAAAAAAAAAAAAAAAAAAAAAAAAAAAAAAAAAAAAAAAAAAAAAAAAAAAAAAAAAAAAAAAAAAAAAAAAAAAAAAAAAAAAAAAAAAAAAAAAAAAAAAAAAAAAAAAAAAAAAAAAAAAAAAAAAAAAAAAAAAAAAAAAAAAAAAAAAAAAAAAAAAAAAAAAAAAAAAAAAAAAAAAAAAAAAAAAAAAAAAAAAAAAAAAAAAAAAAAAAAAAAAAAAAAAAAAAAAAAAAAAAAAAAAAAAAAAAAAAAAAAAAAAAAAAAAAAAAAAAAAAAAAAAAAAAAAAAAAAAAAAAAAAAAAAAAAAAAAAAAAAAAAAAAAAAAAAAAAAAAAAAAAAAAAAAAAAAAAAAAAAAAAAAAAAAAAAAAAAAAAAAAAAAAAAAAAAAAAAAAAAAAAAAAAAAAAAAAAAAAAAAAAAAAAAAAAAAAAAAAAAAAAAAAAAAAAAAAAAAAAAAAAAAAAAAAAAAAAAAAAAAAAAAAAAAAAAAAAAAAAAAAAAAAAAAAAAAAAAAAAAAAAAAAAAAAAAAAAAAAAAAAAAAAAAAAAAAAAAAAAAAAAAAAAAAAAAAAAAAAAAAAAAAAAAAAAAAAAAAAAAAAAAAAAAAAAAAAAAAAAAAAAAAAAAAAAAAAAAAAAAAAAAAAAAAAAAAAAAAAAAAAAAAAAAAAAAAAAAAAAAAAAAAAAAAAAAAAAAAAAAAAAAAAAAAAAAAAAAAAAAAAAAAAAAAAAAAAAAAAAAAAAAAAAAAAAAAAAAAAAAAAAAAAAAAAAAAAAAAAAAAAAAAAAAAAAAAAAAAAAAAAAAAAAAAAAAAAAAAAAAAAAAAAAAAAAAAAAAAAAAAAAAAAAAAAAAAAAAAAAAAAAAAAAAAAAAAAAAAAAAAAAAAAAAAAAAAAAAAAAAAAAAAAAAAAAAAAAAAAAAAAAAAAAAAAAAAAAAAAAAAAAAAAAAAAAAAAAAAAAAAAAAAAAAAAAAAAAAAAAAAAAAAAAAAAAAAAAAAAAAAAAAAAAAAAAAAAAAAAAAAAAAAAAAAAAAAAAAAAAAAAAAAAAAAAAAAAAAAAAAAAAAAAAAAAAAAAAAAAAAAAAAAAAAAAAAAAAAAAAAAAAAAAAAAAAAAAAAAAAAAAAAAAAAAAAAAAAAAAAAAAAAAAAAAAAAAAAAAAAAAAAAAAAAAAAAAAAAAAAAAAAAAAAAAAAAAAAAAAAAAAAAAAAAAAAAAAAAAAAAAAAAAAAAAAAAAAAAAAAAAAAAAAAAAAAAAAAAAAAAAAAAAAAAAAAAAAAAAAAAAAAAAAAAAAAAAAAAAAAAAAAAAAAAAAAAAAAAAAAAAAAAAAAAAAAAAAAAAAAAAAAAAAAAAAAAAAAAAAAAAAAAAAAAAAAAAAAAAAAAAAAAAAAAAAAAAAAAAAAAAAAAAAAAAAAAAAAAAAAAAAAAAAAAAAAAAAAAAAAAAAAAAAAAAAAAAAAAAAAAAAAAAAAAAAAAAAAAAAAAAAAAAAAAAAAAAAAAAAAAAAAAAAAAAAAAAAAAAAAAAAAAAAAAAAAAAAAAAAAAAAAAAAAAAAAAAAAAAAAAAAAAAAAAAAAAAAAAAAAAAAAAAAAAAAAAAAAAAAAAAAAAAAAAAAAAAAAAAAAAAAAAAAAAAAAAAAAAAAAAAAAAAAAAAAAAAAAAAAAAAAAAAAAAAAAAAAAAAAAAAAAAAAAAAAAAAAAAAAAAAAAAAAAAAAAAAAAAAAAAAAAAAAAAAAAAAAAAAAAAAAAAAAAAAAAAAAAAAAAAAAAAAAAAAAAAAAAAAAAAAAAAAAAAAAAAAAAAAAAAAAAAAAAAAAAAAAAAAAAAAAAAAAAAAAAAAAAAAAAAAAAAAAAAAAAAAAAAAAAAAAAAAAAAAAAAAAAAAAAAAAAAAAAAAAAAAAAAAAAAAAAAAAAAAAAAAAAAAAAAAAAAAAAAAAAAAAAAAAAAAAAAAAAAAAAAAAAAAAAAAAAAAAAAAAAAAAAAAAAAAAAAAAAAAAAAAAAAAAAAAAAAAAAAAAAAAAAAAAAAAAAAAAAAAAAAAAAAAAAAAAAAAAAAAAAAAAAAAAAAAAAAAAAAAAAAAAAAAAAAAAAAAAAAAAAAAAAAAAAAAAAAAAAAAAAAAAAAAAAAAAAAAAAAAAAAAAAAAAAAAAAAAAAAAAAAAAAAAAAAAAAAAAAAAAAAAAAAAAAAAAAAAAAAAAAAAAAAAAAAAAAAAAAAAAAAAAAAAAAAAAAAAAAAAAAAAAAAAAAAAAAAAAAAAAAAAAAAAAAAAAAAAAAAAAAAAAAAAAAAAAAAAAAAAAAAAAAAAAAAAAAAAAAAAAAAAAAAAAAAAAAAAAAAAAAAAAAAAAAAAAAAAAAAAAAAAAAAAAAAAAAAAAAAAAAAAAAAAAAAAAAAAAAAAAAAAAAAAAAAAAAAAAAAAAAAAAAPZYQDrZdbIFTKLYbXrrHZ6hznzZz4AzyLyx5oRhChljp8owlTKegJRcOiIkUDgTkg+RMMzmv+HzhoNdceJdXPpx64o=</c2pa:manifest></metadata>
<defs>
<filter id="blur1" x="-50%" y="-50%" width="200%" height="200%"><feGaussianBlur stdDeviation="46"/></filter>
<linearGradient id="glassStroke" x1="0" y1="0" x2="0" y2="1"><stop offset="0" stop-color="#FFFFFF" stop-opacity=".18"/><stop offset="1" stop-color="#FFFFFF" stop-opacity="0"/></linearGradient>
<linearGradient id="lvlgrad" x1="0" y1="0" x2="1" y2="0"><stop stop-color="#22D3EE"/><stop offset="1" stop-color="#8B7BFF"/></linearGradient>
<style>
.m{font-family:"JetBrains Mono","SFMono-Regular",Consolas,"Liberation Mono","DejaVu Sans Mono",monospace}
.s{font-family:Inter,"Segoe UI",Roboto,"Helvetica Neue",Arial,sans-serif}
.i{fill:#E6EDF3}.d{fill:#8B98A5}.f{fill:#55606B}.c{fill:#22D3EE}
.r{animation:rise .55s cubic-bezier(0,0,.2,1) both}
@keyframes rise{from{opacity:0;transform:translateY(8px)}to{opacity:1;transform:translateY(0)}}
@media(prefers-reduced-motion:reduce){.r{animation:none}}
</style>
</defs>
<rect width="1400" height="440" rx="20" fill="#05070a"/>
<circle cx="160" cy="70" r="200" fill="#22D3EE" opacity=".22" filter="url(#blur1)"/>
<circle cx="1240" cy="370" r="240" fill="#8B7BFF" opacity=".20" filter="url(#blur1)"/>
<circle cx="720" cy="410" r="180" fill="#22D3EE" opacity=".10" filter="url(#blur1)"/>
<rect x="20" y="20" width="1360" height="400" rx="18" fill="#FFFFFF" fill-opacity=".045" stroke="url(#glassStroke)" stroke-width="1.4"/>
<rect x="20" y="20" width="1360" height="400" rx="18" fill="none" stroke="#FFFFFF" stroke-opacity=".06"/>
<g class="r">
<text class="s i" x="56" y="62" font-size="23" font-weight="600" letter-spacing="-.3">Commit Activity</text>
<text class="m f" x="1344" y="62" font-size="11.5" text-anchor="end" letter-spacing="1.3">SYNTAXURE · GLASS</text>
</g>
<g class="r" style="animation-delay:.08s">
<rect x="56" y="80" width="270" height="92" rx="14" fill="#FFFFFF" fill-opacity=".05" stroke="#FFFFFF" stroke-opacity=".08"/>
<text class="s" x="80" y="132" font-size="36" font-weight="700" fill="url(#lvlgrad)">2,912</text>
<text class="m d" x="80" y="156" font-size="11.5">Contributions · last 12 months</text>
</g>
<g class="r" style="animation-delay:.14s">
<rect x="342" y="80" width="270" height="92" rx="14" fill="#FFFFFF" fill-opacity=".05" stroke="#FFFFFF" stroke-opacity=".08"/>
<text class="s" x="366" y="132" font-size="36" font-weight="700" fill="url(#lvlgrad)">47</text>
<text class="m d" x="366" y="156" font-size="11.5">Week Streak · current</text>
</g>
<g class="r" style="animation-delay:.2s">
<rect x="628" y="80" width="270" height="92" rx="14" fill="#FFFFFF" fill-opacity=".05" stroke="#FFFFFF" stroke-opacity=".08"/>
<text class="s" x="652" y="132" font-size="36" font-weight="700" fill="url(#lvlgrad)">47</text>
<text class="m d" x="652" y="156" font-size="11.5">Week Streak · longest (12mo)</text>
</g>
<g class="r" style="animation-delay:.26s">
<rect x="914" y="80" width="410" height="92" rx="14" fill="#FFFFFF" fill-opacity=".045" stroke="#FFFFFF" stroke-opacity=".07"/>
<text class="m c" x="938" y="112" font-size="10.5" letter-spacing="1.2">AUTO-UPDATED</text>
<text class="s i" x="936" y="140" font-size="15" font-weight="600">Sep 16, 2026</text>
<text class="m f" x="938" y="160" font-size="10.5">via GitHub Actions, daily</text>
</g>
<g class="r" style="animation-delay:.32s">
<text x="56.0" y="206" class="m f" font-size="12">Sep</text>
<text x="92.0" y="206" class="m f" font-size="12">Oct</text>
<text x="164.0" y="206" class="m f" font-size="12">Nov</text>
<text x="254.0" y="206" class="m f" font-size="12">Dec</text>
<text x="326.0" y="206" class="m f" font-size="12">Jan</text>
<text x="398.0" y="206" class="m f" font-size="12">Feb</text>
<text x="470.0" y="206" class="m f" font-size="12">Mar</text>
<text x="560.0" y="206" class="m f" font-size="12">Apr</text>
<text x="632.0" y="206" class="m f" font-size="12">May</text>
<text x="722.0" y="206" class="m f" font-size="12">Jun</text>
<text x="794.0" y="206" class="m f" font-size="12">Jul</text>
<text x="866.0" y="206" class="m f" font-size="12">Aug</text>
<text x="956.0" y="206" class="m f" font-size="12">Sep</text>
<text x="20" y="249" class="m f" font-size="11.5">Mon</text>
<text x="20" y="285" class="m f" font-size="11.5">Wed</text>
<text x="20" y="321" class="m f" font-size="11.5">Fri</text>
<rect x="56.0" y="220" width="14" height="14" rx="3" fill="#8B7BFF"/>
<rect x="56.0" y="238" width="14" height="14" rx="3" fill="#8B7BFF"/>
<rect x="56.0" y="256" width="14" height="14" rx="3" fill="#0f7a8c"/>
<rect x="56.0" y="274" width="14" height="14" rx="3" fill="#151b23"/>
<rect x="56.0" y="292" width="14" height="14" rx="3" fill="#151b23"/>
<rect x="56.0" y="310" width="14" height="14" rx="3" fill="#0f7a8c"/>
<rect x="56.0" y="328" width="14" height="14" rx="3" fill="#151b23"/>
<rect x="74.0" y="220" width="14" height="14" rx="3" fill="#22D3EE"/>
<rect x="74.0" y="238" width="14" height="14" rx="3" fill="#151b23"/>
<rect x="74.0" y="256" width="14" height="14" rx="3" fill="#151b23"/>
<rect x="74.0" y="274" width="14" height="14" rx="3" fill="#0e4a52"/>
<rect x="74.0" y="292" width="14" height="14" rx="3" fill="#0e4a52"/>
<rect x="74.0" y="310" width="14" height="14" rx="3" fill="#151b23"/>
<rect x="74.0" y="328" width="14" height="14" rx="3" fill="#151b23"/>
<rect x="92.0" y="220" width="14" height="14" rx="3" fill="#151b23"/>
<rect x="92.0" y="238" width="14" height="14" rx="3" fill="#151b23"/>
<rect x="92.0" y="256" width="14" height="14" rx="3" fill="#151b23"/>
<rect x="92.0" y="274" width="14" height="14" rx="3" fill="#151b23"/>
<rect x="92.0" y="292" width="14" height="14" rx="3" fill="#151b23"/>
<rect x="92.0" y="310" width="14" height="14" rx="3" fill="#151b23"/>
<rect x="92.0" y="328" width="14" height="14" rx="3" fill="#151b23"/>
<rect x="110.0" y="220" width="14" height="14" rx="3" fill="#151b23"/>
<rect x="110.0" y="238" width="14" height="14" rx="3" fill="#151b23"/>
<rect x="110.0" y="256" width="14" height="14" rx="3" fill="#151b23"/>
<rect x="110.0" y="274" width="14" height="14" rx="3" fill="#151b23"/>
<rect x="110.0" y="292" width="14" height="14" rx="3" fill="#151b23"/>
<rect x="110.0" y="310" width="14" height="14" rx="3" fill="#151b23"/>
<rect x="110.0" y="328" width="14" height="14" rx="3" fill="#151b23"/>
<rect x="128.0" y="220" width="14" height="14" rx="3" fill="#151b23"/>
<rect x="128.0" y="238" width="14" height="14" rx="3" fill="#151b23"/>
<rect x="128.0" y="256" width="14" height="14" rx="3" fill="#151b23"/>
<rect x="128.0" y="274" width="14" height="14" rx="3" fill="#151b23"/>
<rect x="128.0" y="292" width="14" height="14" rx="3" fill="#151b23"/>
<rect x="128.0" y="310" width="14" height="14" rx="3" fill="#151b23"/>
<rect x="128.0" y="328" width="14" height="14" rx="3" fill="#151b23"/>
<rect x="146.0" y="220" width="14" height="14" rx="3" fill="#151b23"/>
<rect x="146.0" y="238" width="14" height="14" rx="3" fill="#151b23"/>
<rect x="146.0" y="256" width="14" height="14" rx="3" fill="#151b23"/>
<rect x="146.0" y="274" width="14" height="14" rx="3" fill="#0e4a52"/>
<rect x="146.0" y="292" width="14" height="14" rx="3" fill="#151b23"/>
<rect x="146.0" y="310" width="14" height="14" rx="3" fill="#151b23"/>
<rect x="146.0" y="328" width="14" height="14" rx="3" fill="#151b23"/>
<rect x="164.0" y="220" width="14" height="14" rx="3" fill="#151b23"/>
<rect x="164.0" y="238" width="14" height="14" rx="3" fill="#151b23"/>
<rect x="164.0" y="256" width="14" height="14" rx="3" fill="#151b23"/>
<rect x="164.0" y="274" width="14" height="14" rx="3" fill="#151b23"/>
<rect x="164.0" y="292" width="14" height="14" rx="3" fill="#151b23"/>
<rect x="164.0" y="310" width="14" height="14" rx="3" fill="#151b23"/>
<rect x="164.0" y="328" width="14" height="14" rx="3" fill="#0f7a8c"/>
<rect x="182.0" y="220" width="14" height="14" rx="3" fill="#0e4a52"/>
<rect x="182.0" y="238" width="14" height="14" rx="3" fill="#0e4a52"/>
<rect x="182.0" y="256" width="14" height="14" rx="3" fill="#151b23"/>
<rect x="182.0" y="274" width="14" height="14" rx="3" fill="#151b23"/>
<rect x="182.0" y="292" width="14" height="14" rx="3" fill="#151b23"/>
<rect x="182.0" y="310" width="14" height="14" rx="3" fill="#0e4a52"/>
<rect x="182.0" y="328" width="14" height="14" rx="3" fill="#22D3EE"/>
<rect x="200.0" y="220" width="14" height="14" rx="3" fill="#8B7BFF"/>
<rect x="200.0" y="238" width="14" height="14" rx="3" fill="#151b23"/>
<rect x="200.0" y="256" width="14" height="14" rx="3" fill="#151b23"/>
<rect x="200.0" y="274" width="14" height="14" rx="3" fill="#151b23"/>
<rect x="200.0" y="292" width="14" height="14" rx="3" fill="#151b23"/>
<rect x="200.0" y="310" width="14" height="14" rx="3" fill="#151b23"/>
<rect x="200.0" y="328" width="14" height="14" rx="3" fill="#151b23"/>
<rect x="218.0" y="220" width="14" height="14" rx="3" fill="#0e4a52"/>
<rect x="218.0" y="238" width="14" height="14" rx="3" fill="#0e4a52"/>
<rect x="218.0" y="256" width="14" height="14" rx="3" fill="#0f7a8c"/>
<rect x="218.0" y="274" width="14" height="14" rx="3" fill="#151b23"/>
<rect x="218.0" y="292" width="14" height="14" rx="3" fill="#151b23"/>
<rect x="218.0" y="310" width="14" height="14" rx="3" fill="#151b23"/>
<rect x="218.0" y="328" width="14" height="14" rx="3" fill="#151b23"/>
<rect x="236.0" y="220" width="14" height="14" rx="3" fill="#151b23"/>
<rect x="236.0" y="238" width="14" height="14" rx="3" fill="#151b23"/>
<rect x="236.0" y="256" width="14" height="14" rx="3" fill="#151b23"/>
<rect x="236.0" y="274" width="14" height="14" rx="3" fill="#151b23"/>
<rect x="236.0" y="292" width="14" height="14" rx="3" fill="#0e4a52"/>
<rect x="236.0" y="310" width="14" height="14" rx="3" fill="#151b23"/>
<rect x="236.0" y="328" width="14" height="14" rx="3" fill="#0e4a52"/>
<rect x="254.0" y="220" width="14" height="14" rx="3" fill="#22D3EE"/>
<rect x="254.0" y="238" width="14" height="14" rx="3" fill="#22D3EE"/>
<rect x="254.0" y="256" width="14" height="14" rx="3" fill="#8B7BFF"/>
<rect x="254.0" y="274" width="14" height="14" rx="3" fill="#0f7a8c"/>
<rect x="254.0" y="292" width="14" height="14" rx="3" fill="#0e4a52"/>
<rect x="254.0" y="310" width="14" height="14" rx="3" fill="#0f7a8c"/>
<rect x="254.0" y="328" width="14" height="14" rx="3" fill="#0f7a8c"/>
<rect x="272.0" y="220" width="14" height="14" rx="3" fill="#22D3EE"/>
<rect x="272.0" y="238" width="14" height="14" rx="3" fill="#8B7BFF"/>
<rect x="272.0" y="256" width="14" height="14" rx="3" fill="#0e4a52"/>
<rect x="272.0" y="274" width="14" height="14" rx="3" fill="#22D3EE"/>
<rect x="272.0" y="292" width="14" height="14" rx="3" fill="#0e4a52"/>
<rect x="272.0" y="310" width="14" height="14" rx="3" fill="#22D3EE"/>
<rect x="272.0" y="328" width="14" height="14" rx="3" fill="#0e4a52"/>
<rect x="290.0" y="220" width="14" height="14" rx="3" fill="#151b23"/>
<rect x="290.0" y="238" width="14" height="14" rx="3" fill="#151b23"/>
<rect x="290.0" y="256" width="14" height="14" rx="3" fill="#151b23"/>
<rect x="290.0" y="274" width="14" height="14" rx="3" fill="#0f7a8c"/>
<rect x="290.0" y="292" width="14" height="14" rx="3" fill="#22D3EE"/>
<rect x="290.0" y="310" width="14" height="14" rx="3" fill="#8B7BFF"/>
<rect x="290.0" y="328" width="14" height="14" rx="3" fill="#22D3EE"/>
<rect x="308.0" y="220" width="14" height="14" rx="3" fill="#8B7BFF"/>
<rect x="308.0" y="238" width="14" height="14" rx="3" fill="#8B7BFF"/>
<rect x="308.0" y="256" width="14" height="14" rx="3" fill="#8B7BFF"/>
<rect x="308.0" y="274" width="14" height="14" rx="3" fill="#22D3EE"/>
<rect x="308.0" y="292" width="14" height="14" rx="3" fill="#0f7a8c"/>
<rect x="308.0" y="310" width="14" height="14" rx="3" fill="#151b23"/>
<rect x="308.0" y="328" width="14" height="14" rx="3" fill="#0f7a8c"/>
<rect x="326.0" y="220" width="14" height="14" rx="3" fill="#8B7BFF"/>
<rect x="326.0" y="238" width="14" height="14" rx="3" fill="#0e4a52"/>
<rect x="326.0" y="256" width="14" height="14" rx="3" fill="#8B7BFF"/>
<rect x="326.0" y="274" width="14" height="14" rx="3" fill="#22D3EE"/>
<rect x="326.0" y="292" width="14" height="14" rx="3" fill="#0f7a8c"/>
<rect x="326.0" y="310" width="14" height="14" rx="3" fill="#0e4a52"/>
<rect x="326.0" y="328" width="14" height="14" rx="3" fill="#151b23"/>
<rect x="344.0" y="220" width="14" height="14" rx="3" fill="#151b23"/>
<rect x="344.0" y="238" width="14" height="14" rx="3" fill="#151b23"/>
<rect x="344.0" y="256" width="14" height="14" rx="3" fill="#0f7a8c"/>
<rect x="344.0" y="274" width="14" height="14" rx="3" fill="#0f7a8c"/>
<rect x="344.0" y="292" width="14" height="14" rx="3" fill="#151b23"/>
<rect x="344.0" y="310" width="14" height="14" rx="3" fill="#0e4a52"/>
<rect x="344.0" y="328" width="14" height="14" rx="3" fill="#151b23"/>
<rect x="362.0" y="220" width="14" height="14" rx="3" fill="#151b23"/>
<rect x="362.0" y="238" width="14" height="14" rx="3" fill="#0e4a52"/>
<rect x="362.0" y="256" width="14" height="14" rx="3" fill="#151b23"/>
<rect x="362.0" y="274" width="14" height="14" rx="3" fill="#151b23"/>
<rect x="362.0" y="292" width="14" height="14" rx="3" fill="#0e4a52"/>
<rect x="362.0" y="310" width="14" height="14" rx="3" fill="#151b23"/>
<rect x="362.0" y="328" width="14" height="14" rx="3" fill="#151b23"/>
<rect x="380.0" y="220" width="14" height="14" rx="3" fill="#0f7a8c"/>
<rect x="380.0" y="238" width="14" height="14" rx="3" fill="#151b23"/>
<rect x="380.0" y="256" width="14" height="14" rx="3" fill="#151b23"/>
<rect x="380.0" y="274" width="14" height="14" rx="3" fill="#151b23"/>
<rect x="380.0" y="292" width="14" height="14" rx="3" fill="#151b23"/>
<rect x="380.0" y="310" width="14" height="14" rx="3" fill="#22D3EE"/>
<rect x="380.0" y="328" width="14" height="14" rx="3" fill="#8B7BFF"/>
<rect x="398.0" y="220" width="14" height="14" rx="3" fill="#8B7BFF"/>
<rect x="398.0" y="238" width="14" height="14" rx="3" fill="#22D3EE"/>
<rect x="398.0" y="256" width="14" height="14" rx="3" fill="#0f7a8c"/>
<rect x="398.0" y="274" width="14" height="14" rx="3" fill="#22D3EE"/>
<rect x="398.0" y="292" width="14" height="14" rx="3" fill="#151b23"/>
<rect x="398.0" y="310" width="14" height="14" rx="3" fill="#0e4a52"/>
<rect x="398.0" y="328" width="14" height="14" rx="3" fill="#0e4a52"/>
<rect x="416.0" y="220" width="14" height="14" rx="3" fill="#0e4a52"/>
<rect x="416.0" y="238" width="14" height="14" rx="3" fill="#151b23"/>
<rect x="416.0" y="256" width="14" height="14" rx="3" fill="#0e4a52"/>
<rect x="416.0" y="274" width="14" height="14" rx="3" fill="#151b23"/>
<rect x="416.0" y="292" width="14" height="14" rx="3" fill="#151b23"/>
<rect x="416.0" y="310" width="14" height="14" rx="3" fill="#8B7BFF"/>
<rect x="416.0" y="328" width="14" height="14" rx="3" fill="#0e4a52"/>
<rect x="434.0" y="220" width="14" height="14" rx="3" fill="#151b23"/>
<rect x="434.0" y="238" width="14" height="14" rx="3" fill="#0e4a52"/>
<rect x="434.0" y="256" width="14" height="14" rx="3" fill="#151b23"/>
<rect x="434.0" y="274" width="14" height="14" rx="3" fill="#151b23"/>
<rect x="434.0" y="292" width="14" height="14" rx="3" fill="#151b23"/>
<rect x="434.0" y="310" width="14" height="14" rx="3" fill="#0f7a8c"/>
<rect x="434.0" y="328" width="14" height="14" rx="3" fill="#0e4a52"/>
<rect x="452.0" y="220" width="14" height="14" rx="3" fill="#22D3EE"/>
<rect x="452.0" y="238" width="14" height="14" rx="3" fill="#0e4a52"/>
<rect x="452.0" y="256" width="14" height="14" rx="3" fill="#151b23"/>
<rect x="452.0" y="274" width="14" height="14" rx="3" fill="#151b23"/>
<rect x="452.0" y="292" width="14" height="14" rx="3" fill="#151b23"/>
<rect x="452.0" y="310" width="14" height="14" rx="3" fill="#22D3EE"/>
<rect x="452.0" y="328" width="14" height="14" rx="3" fill="#0f7a8c"/>
<rect x="470.0" y="220" width="14" height="14" rx="3" fill="#22D3EE"/>
<rect x="470.0" y="238" width="14" height="14" rx="3" fill="#0e4a52"/>
<rect x="470.0" y="256" width="14" height="14" rx="3" fill="#0e4a52"/>
<rect x="470.0" y="274" width="14" height="14" rx="3" fill="#151b23"/>
<rect x="470.0" y="292" width="14" height="14" rx="3" fill="#151b23"/>
<rect x="470.0" y="310" width="14" height="14" rx="3" fill="#151b23"/>
<rect x="470.0" y="328" width="14" height="14" rx="3" fill="#0f7a8c"/>
<rect x="488.0" y="220" width="14" height="14" rx="3" fill="#0f7a8c"/>
<rect x="488.0" y="238" width="14" height="14" rx="3" fill="#22D3EE"/>
<rect x="488.0" y="256" width="14" height="14" rx="3" fill="#0f7a8c"/>
<rect x="488.0" y="274" width="14" height="14" rx="3" fill="#0e4a52"/>
<rect x="488.0" y="292" width="14" height="14" rx="3" fill="#151b23"/>
<rect x="488.0" y="310" width="14" height="14" rx="3" fill="#151b23"/>
<rect x="488.0" y="328" width="14" height="14" rx="3" fill="#151b23"/>
<rect x="506.0" y="220" width="14" height="14" rx="3" fill="#8B7BFF"/>
<rect x="506.0" y="238" width="14" height="14" rx="3" fill="#22D3EE"/>
<rect x="506.0" y="256" width="14" height="14" rx="3" fill="#8B7BFF"/>
<rect x="506.0" y="274" width="14" height="14" rx="3" fill="#151b23"/>
<rect x="506.0" y="292" width="14" height="14" rx="3" fill="#0e4a52"/>
<rect x="506.0" y="310" width="14" height="14" rx="3" fill="#22D3EE"/>
<rect x="506.0" y="328" width="14" height="14" rx="3" fill="#151b23"/>
<rect x="524.0" y="220" width="14" height="14" rx="3" fill="#22D3EE"/>
<rect x="524.0" y="238" width="14" height="14" rx="3" fill="#151b23"/>
<rect x="524.0" y="256" width="14" height="14" rx="3" fill="#22D3EE"/>
<rect x="524.0" y="274" width="14" height="14" rx="3" fill="#151b23"/>
<rect x="524.0" y="292" width="14" height="14" rx="3" fill="#0f7a8c"/>
<rect x="524.0" y="310" width="14" height="14" rx="3" fill="#0f7a8c"/>
<rect x="524.0" y="328" width="14" height="14" rx="3" fill="#22D3EE"/>
<rect x="542.0" y="220" width="14" height="14" rx="3" fill="#0e4a52"/>
<rect x="542.0" y="238" width="14" height="14" rx="3" fill="#151b23"/>
<rect x="542.0" y="256" width="14" height="14" rx="3" fill="#151b23"/>
<rect x="542.0" y="274" width="14" height="14" rx="3" fill="#0f7a8c"/>
<rect x="542.0" y="292" width="14" height="14" rx="3" fill="#0e4a52"/>
<rect x="542.0" y="310" width="14" height="14" rx="3" fill="#151b23"/>
<rect x="542.0" y="328" width="14" height="14" rx="3" fill="#151b23"/>
<rect x="560.0" y="220" width="14" height="14" rx="3" fill="#151b23"/>
<rect x="560.0" y="238" width="14" height="14" rx="3" fill="#0e4a52"/>
<rect x="560.0" y="256" width="14" height="14" rx="3" fill="#0f7a8c"/>
<rect x="560.0" y="274" width="14" height="14" rx="3" fill="#151b23"/>
<rect x="560.0" y="292" width="14" height="14" rx="3" fill="#151b23"/>
<rect x="560.0" y="310" width="14" height="14" rx="3" fill="#151b23"/>
<rect x="560.0" y="328" width="14" height="14" rx="3" fill="#22D3EE"/>
<rect x="578.0" y="220" width="14" height="14" rx="3" fill="#151b23"/>
<rect x="578.0" y="238" width="14" height="14" rx="3" fill="#0f7a8c"/>
<rect x="578.0" y="256" width="14" height="14" rx="3" fill="#8B7BFF"/>
<rect x="578.0" y="274" width="14" height="14" rx="3" fill="#22D3EE"/>
<rect x="578.0" y="292" width="14" height="14" rx="3" fill="#22D3EE"/>
<rect x="578.0" y="310" width="14" height="14" rx="3" fill="#0e4a52"/>
<rect x="578.0" y="328" width="14" height="14" rx="3" fill="#151b23"/>
<rect x="596.0" y="220" width="14" height="14" rx="3" fill="#0f7a8c"/>
<rect x="596.0" y="238" width="14" height="14" rx="3" fill="#8B7BFF"/>
<rect x="596.0" y="256" width="14" height="14" rx="3" fill="#8B7BFF"/>
<rect x="596.0" y="274" width="14" height="14" rx="3" fill="#0f7a8c"/>
<rect x="596.0" y="292" width="14" height="14" rx="3" fill="#151b23"/>
<rect x="596.0" y="310" width="14" height="14" rx="3" fill="#151b23"/>
<rect x="596.0" y="328" width="14" height="14" rx="3" fill="#0e4a52"/>
<rect x="614.0" y="220" width="14" height="14" rx="3" fill="#0f7a8c"/>
<rect x="614.0" y="238" width="14" height="14" rx="3" fill="#8B7BFF"/>
<rect x="614.0" y="256" width="14" height="14" rx="3" fill="#151b23"/>
<rect x="614.0" y="274" width="14" height="14" rx="3" fill="#151b23"/>
<rect x="614.0" y="292" width="14" height="14" rx="3" fill="#151b23"/>
<rect x="614.0" y="310" width="14" height="14" rx="3" fill="#0f7a8c"/>
<rect x="614.0" y="328" width="14" height="14" rx="3" fill="#151b23"/>
<rect x="632.0" y="220" width="14" height="14" rx="3" fill="#151b23"/>
<rect x="632.0" y="238" width="14" height="14" rx="3" fill="#0f7a8c"/>
<rect x="632.0" y="256" width="14" height="14" rx="3" fill="#8B7BFF"/>
<rect x="632.0" y="274" width="14" height="14" rx="3" fill="#151b23"/>
<rect x="632.0" y="292" width="14" height="14" rx="3" fill="#22D3EE"/>
<rect x="632.0" y="310" width="14" height="14" rx="3" fill="#22D3EE"/>
<rect x="632.0" y="328" width="14" height="14" rx="3" fill="#8B7BFF"/>
<rect x="650.0" y="220" width="14" height="14" rx="3" fill="#8B7BFF"/>
<rect x="650.0" y="238" width="14" height="14" rx="3" fill="#8B7BFF"/>
<rect x="650.0" y="256" width="14" height="14" rx="3" fill="#22D3EE"/>
<rect x="650.0" y="274" width="14" height="14" rx="3" fill="#8B7BFF"/>
<rect x="650.0" y="292" width="14" height="14" rx="3" fill="#0f7a8c"/>
<rect x="650.0" y="310" width="14" height="14" rx="3" fill="#8B7BFF"/>
<rect x="650.0" y="328" width="14" height="14" rx="3" fill="#8B7BFF"/>
<rect x="668.0" y="220" width="14" height="14" rx="3" fill="#8B7BFF"/>
<rect x="668.0" y="238" width="14" height="14" rx="3" fill="#8B7BFF"/>
<rect x="668.0" y="256" width="14" height="14" rx="3" fill="#22D3EE"/>
<rect x="668.0" y="274" width="14" height="14" rx="3" fill="#0e4a52"/>
<rect x="668.0" y="292" width="14" height="14" rx="3" fill="#8B7BFF"/>
<rect x="668.0" y="310" width="14" height="14" rx="3" fill="#8B7BFF"/>
<rect x="668.0" y="328" width="14" height="14" rx="3" fill="#8B7BFF"/>
<rect x="686.0" y="220" width="14" height="14" rx="3" fill="#8B7BFF"/>
<rect x="686.0" y="238" width="14" height="14" rx="3" fill="#22D3EE"/>
<rect x="686.0" y="256" width="14" height="14" rx="3" fill="#8B7BFF"/>
<rect x="686.0" y="274" width="14" height="14" rx="3" fill="#8B7BFF"/>
<rect x="686.0" y="292" width="14" height="14" rx="3" fill="#8B7BFF"/>
<rect x="686.0" y="310" width="14" height="14" rx="3" fill="#8B7BFF"/>
<rect x="686.0" y="328" width="14" height="14" rx="3" fill="#0f7a8c"/>
<rect x="704.0" y="220" width="14" height="14" rx="3" fill="#8B7BFF"/>
<rect x="704.0" y="238" width="14" height="14" rx="3" fill="#8B7BFF"/>
<rect x="704.0" y="256" width="14" height="14" rx="3" fill="#0f7a8c"/>
<rect x="704.0" y="274" width="14" height="14" rx="3" fill="#8B7BFF"/>
<rect x="704.0" y="292" width="14" height="14" rx="3" fill="#0e4a52"/>
<rect x="704.0" y="310" width="14" height="14" rx="3" fill="#0f7a8c"/>
<rect x="704.0" y="328" width="14" height="14" rx="3" fill="#0e4a52"/>
<rect x="722.0" y="220" width="14" height="14" rx="3" fill="#22D3EE"/>
<rect x="722.0" y="238" width="14" height="14" rx="3" fill="#22D3EE"/>
<rect x="722.0" y="256" width="14" height="14" rx="3" fill="#0f7a8c"/>
<rect x="722.0" y="274" width="14" height="14" rx="3" fill="#151b23"/>
<rect x="722.0" y="292" width="14" height="14" rx="3" fill="#0f7a8c"/>
<rect x="722.0" y="310" width="14" height="14" rx="3" fill="#0e4a52"/>
<rect x="722.0" y="328" width="14" height="14" rx="3" fill="#151b23"/>
<rect x="740.0" y="220" width="14" height="14" rx="3" fill="#22D3EE"/>
<rect x="740.0" y="238" width="14" height="14" rx="3" fill="#0e4a52"/>
<rect x="740.0" y="256" width="14" height="14" rx="3" fill="#0f7a8c"/>
<rect x="740.0" y="274" width="14" height="14" rx="3" fill="#151b23"/>
<rect x="740.0" y="292" width="14" height="14" rx="3" fill="#8B7BFF"/>
<rect x="740.0" y="310" width="14" height="14" rx="3" fill="#8B7BFF"/>
<rect x="740.0" y="328" width="14" height="14" rx="3" fill="#0f7a8c"/>
<rect x="758.0" y="220" width="14" height="14" rx="3" fill="#8B7BFF"/>
<rect x="758.0" y="238" width="14" height="14" rx="3" fill="#8B7BFF"/>
<rect x="758.0" y="256" width="14" height="14" rx="3" fill="#8B7BFF"/>
<rect x="758.0" y="274" width="14" height="14" rx="3" fill="#22D3EE"/>
<rect x="758.0" y="292" width="14" height="14" rx="3" fill="#0f7a8c"/>
<rect x="758.0" y="310" width="14" height="14" rx="3" fill="#8B7BFF"/>
<rect x="758.0" y="328" width="14" height="14" rx="3" fill="#8B7BFF"/>
<rect x="776.0" y="220" width="14" height="14" rx="3" fill="#8B7BFF"/>
<rect x="776.0" y="238" width="14" height="14" rx="3" fill="#22D3EE"/>
<rect x="776.0" y="256" width="14" height="14" rx="3" fill="#0e4a52"/>
<rect x="776.0" y="274" width="14" height="14" rx="3" fill="#0f7a8c"/>
<rect x="776.0" y="292" width="14" height="14" rx="3" fill="#8B7BFF"/>
<rect x="776.0" y="310" width="14" height="14" rx="3" fill="#8B7BFF"/>
<rect x="776.0" y="328" width="14" height="14" rx="3" fill="#0f7a8c"/>
<rect x="794.0" y="220" width="14" height="14" rx="3" fill="#8B7BFF"/>
<rect x="794.0" y="238" width="14" height="14" rx="3" fill="#8B7BFF"/>
<rect x="794.0" y="256" width="14" height="14" rx="3" fill="#8B7BFF"/>
<rect x="794.0" y="274" width="14" height="14" rx="3" fill="#8B7BFF"/>
<rect x="794.0" y="292" width="14" height="14" rx="3" fill="#8B7BFF"/>
<rect x="794.0" y="310" width="14" height="14" rx="3" fill="#0e4a52"/>
<rect x="794.0" y="328" width="14" height="14" rx="3" fill="#8B7BFF"/>
<rect x="812.0" y="220" width="14" height="14" rx="3" fill="#0f7a8c"/>
<rect x="812.0" y="238" width="14" height="14" rx="3" fill="#22D3EE"/>
<rect x="812.0" y="256" width="14" height="14" rx="3" fill="#151b23"/>
<rect x="812.0" y="274" width="14" height="14" rx="3" fill="#151b23"/>
<rect x="812.0" y="292" width="14" height="14" rx="3" fill="#151b23"/>
<rect x="812.0" y="310" width="14" height="14" rx="3" fill="#0f7a8c"/>
<rect x="812.0" y="328" width="14" height="14" rx="3" fill="#0f7a8c"/>
<rect x="830.0" y="220" width="14" height="14" rx="3" fill="#0f7a8c"/>
<rect x="830.0" y="238" width="14" height="14" rx="3" fill="#0f7a8c"/>
<rect x="830.0" y="256" width="14" height="14" rx="3" fill="#0f7a8c"/>
<rect x="830.0" y="274" width="14" height="14" rx="3" fill="#151b23"/>
<rect x="830.0" y="292" width="14" height="14" rx="3" fill="#22D3EE"/>
<rect x="830.0" y="310" width="14" height="14" rx="3" fill="#8B7BFF"/>
<rect x="830.0" y="328" width="14" height="14" rx="3" fill="#151b23"/>
<rect x="848.0" y="220" width="14" height="14" rx="3" fill="#22D3EE"/>
<rect x="848.0" y="238" width="14" height="14" rx="3" fill="#22D3EE"/>
<rect x="848.0" y="256" width="14" height="14" rx="3" fill="#0f7a8c"/>
<rect x="848.0" y="274" width="14" height="14" rx="3" fill="#0f7a8c"/>
<rect x="848.0" y="292" width="14" height="14" rx="3" fill="#0f7a8c"/>
<rect x="848.0" y="310" width="14" height="14" rx="3" fill="#22D3EE"/>
<rect x="848.0" y="328" width="14" height="14" rx="3" fill="#151b23"/>
<rect x="866.0" y="220" width="14" height="14" rx="3" fill="#151b23"/>
<rect x="866.0" y="238" width="14" height="14" rx="3" fill="#0e4a52"/>
<rect x="866.0" y="256" width="14" height="14" rx="3" fill="#0f7a8c"/>
<rect x="866.0" y="274" width="14" height="14" rx="3" fill="#151b23"/>
<rect x="866.0" y="292" width="14" height="14" rx="3" fill="#151b23"/>
<rect x="866.0" y="310" width="14" height="14" rx="3" fill="#0f7a8c"/>
<rect x="866.0" y="328" width="14" height="14" rx="3" fill="#0e4a52"/>
<rect x="884.0" y="220" width="14" height="14" rx="3" fill="#8B7BFF"/>
<rect x="884.0" y="238" width="14" height="14" rx="3" fill="#151b23"/>
<rect x="884.0" y="256" width="14" height="14" rx="3" fill="#0f7a8c"/>
<rect x="884.0" y="274" width="14" height="14" rx="3" fill="#151b23"/>
<rect x="884.0" y="292" width="14" height="14" rx="3" fill="#0f7a8c"/>
<rect x="884.0" y="310" width="14" height="14" rx="3" fill="#22D3EE"/>
<rect x="884.0" y="328" width="14" height="14" rx="3" fill="#0f7a8c"/>
<rect x="902.0" y="220" width="14" height="14" rx="3" fill="#0f7a8c"/>
<rect x="902.0" y="238" width="14" height="14" rx="3" fill="#151b23"/>
<rect x="902.0" y="256" width="14" height="14" rx="3" fill="#0f7a8c"/>
<rect x="902.0" y="274" width="14" height="14" rx="3" fill="#151b23"/>
<rect x="902.0" y="292" width="14" height="14" rx="3" fill="#0e4a52"/>
<rect x="902.0" y="310" width="14" height="14" rx="3" fill="#151b23"/>
<rect x="902.0" y="328" width="14" height="14" rx="3" fill="#151b23"/>
<rect x="920.0" y="220" width="14" height="14" rx="3" fill="#8B7BFF"/>
<rect x="920.0" y="238" width="14" height="14" rx="3" fill="#0f7a8c"/>
<rect x="920.0" y="256" width="14" height="14" rx="3" fill="#22D3EE"/>
<rect x="920.0" y="274" width="14" height="14" rx="3" fill="#22D3EE"/>
<rect x="920.0" y="292" width="14" height="14" rx="3" fill="#151b23"/>
<rect x="920.0" y="310" width="14" height="14" rx="3" fill="#0f7a8c"/>
<rect x="920.0" y="328" width="14" height="14" rx="3" fill="#22D3EE"/>
<rect x="938.0" y="220" width="14" height="14" rx="3" fill="#8B7BFF"/>
<rect x="938.0" y="238" width="14" height="14" rx="3" fill="#8B7BFF"/>
<rect x="938.0" y="256" width="14" height="14" rx="3" fill="#8B7BFF"/>
<rect x="938.0" y="274" width="14" height="14" rx="3" fill="#0e4a52"/>
<rect x="938.0" y="292" width="14" height="14" rx="3" fill="#22D3EE"/>
<rect x="938.0" y="310" width="14" height="14" rx="3" fill="#151b23"/>
<rect x="938.0" y="328" width="14" height="14" rx="3" fill="#0e4a52"/>
<rect x="956.0" y="220" width="14" height="14" rx="3" fill="#151b23"/>
<rect x="956.0" y="238" width="14" height="14" rx="3" fill="#151b23"/>
<rect x="956.0" y="256" width="14" height="14" rx="3" fill="#151b23"/>
<rect x="956.0" y="274" width="14" height="14" rx="3" fill="#151b23"/>
<rect x="956.0" y="292" width="14" height="14" rx="3" fill="#8B7BFF"/>
<rect x="956.0" y="310" width="14" height="14" rx="3" fill="#22D3EE"/>
<rect x="956.0" y="328" width="14" height="14" rx="3" fill="#8B7BFF"/>
<rect x="974.0" y="220" width="14" height="14" rx="3" fill="#8B7BFF"/>
<rect x="974.0" y="238" width="14" height="14" rx="3" fill="#0f7a8c"/>
<rect x="974.0" y="256" width="14" height="14" rx="3" fill="#151b23"/>
<rect x="974.0" y="274" width="14" height="14" rx="3" fill="#151b23"/>
<rect x="974.0" y="292" width="14" height="14" rx="3" fill="#151b23"/>
<rect x="974.0" y="310" width="14" height="14" rx="3" fill="#151b23"/>
<rect x="974.0" y="328" width="14" height="14" rx="3" fill="#151b23"/>
</g>
<g class="r" style="animation-delay:.4s">
<text class="m f" x="56" y="394" font-size="11.5">Less</text>
<rect x="88" y="384" width="13" height="13" rx="3" fill="#151b23"/>
<rect x="106" y="384" width="13" height="13" rx="3" fill="#0e4a52"/>
<rect x="124" y="384" width="13" height="13" rx="3" fill="#0f7a8c"/>
<rect x="142" y="384" width="13" height="13" rx="3" fill="#22D3EE"/>
<rect x="160" y="384" width="13" height="13" rx="3" fill="#8B7BFF"/>
<text class="m f" x="182" y="394" font-size="11.5">More</text>
<text class="m f" x="1344" y="394" font-size="11.5" text-anchor="end">source: github.com/J-Akiru5 · GraphQL contributionsCollection</text>
</g>
</svg>
